PathFileType	4	(X/Y/Z)	OpenSim_Sub11_CSPreOp_Accel.trc
DataRate	CameraRate	NumFrames	NumMarkers	Units	OrigDataRate	OrigDataStartFrame	OrigNumFrames
100	100	31	8	m	100	1388	3701
Frame#	Time	torso_imu_offset_imu	pelvis_imu_offset_imu	tibia_r_imu_offset_imu	femur_r_imu_offset_imu	tibia_l_imu_offset_imu	femur_l_imu_offset_imu	toes_r_imu_offset_imu	toes_l_imu_offset_imu
				X1	Y1	Z1	X2	Y2	Z2	X3	Y3	Z3	X4	Y4	Z4	X5	Y5	Z5	X6	Y6	Z6	X7	Y7	Z7	X8		Y8	Z8	

1388	13.87000000	9.09001700	0.50289800	4.14602400	8.90677700	-0.60228400	3.08773900	11.50689300	-0.75385100	1.60554200	9.17098200	-2.10040200	-1.38393100	9.85808100	0.15710500	0.68003000	9.34057700	2.64292800	-1.51110500	12.72753300	0.05380600	8.39548400	5.83962200	-0.34848000	7.81654100
1389	13.88000000	9.05726300	0.49568700	4.15172200	8.88154100	-0.72112000	3.13137600	11.76903800	-1.22185500	1.31650700	9.47528200	-2.51218000	-1.51903400	9.84154600	-0.01405800	0.60418600	9.25969200	2.66329300	-1.62436600	14.10270200	2.35832300	7.39049300	5.89764000	-0.11711500	7.87406400
1390	13.89000000	9.12111300	0.52048500	4.14269600	8.88763600	-0.71421500	3.19915900	11.83442800	-1.30079000	0.67349900	9.73922400	-2.58410600	-1.83847800	9.87276000	-0.16989100	0.51209700	9.19366300	2.77433200	-1.68969400	14.75153200	4.18146600	7.73734400	5.20497600	0.01758800	8.23304400
1391	13.90000000	9.10726800	0.54381700	4.11025200	8.88731900	-0.72434800	3.16996200	11.65439000	-0.93436300	0.46374000	10.07843300	-2.97786900	-2.18069800	9.92273300	0.05591500	0.54943100	9.17849600	2.78167100	-1.81390100	13.04291200	1.73260500	6.11516900	5.87471200	0.00463900	7.84246500
1392	13.91000000	9.11535000	0.56814400	4.10521100	8.91793200	-0.72386500	3.23498300	11.16888200	-0.39711300	1.08847300	10.19883200	-3.27224400	-2.48482000	9.89718400	0.34174000	0.52834200	9.22301200	2.63083200	-1.97731200	12.81905400	-0.17685300	4.37696700	5.47258000	-0.04151800	8.07750700
1393	13.92000000	9.03689100	0.60994000	4.17487900	8.93810800	-0.65677200	3.23894000	10.48538800	-0.44352600	1.64680800	10.19137900	-3.39578600	-2.62422700	9.91717300	0.21327400	0.29040100	9.25924900	2.56468700	-1.96520500	12.19841100	-1.95076500	2.44453700	5.90020200	0.00528600	7.87346800
1394	13.93000000	9.07677300	0.66487400	4.21151900	9.07004400	-0.53277000	3.15015700	9.83888900	-1.06070900	2.28150200	10.01814900	-3.54750600	-2.71599000	9.99291100	-0.27827500	0.25253400	9.33346000	2.36735100	-1.88959600	12.40193100	-1.21174200	2.09753500	5.77091500	-0.04488100	7.89781500
1395	13.94000000	9.00912100	0.67744800	4.29611300	9.11957400	-0.55343200	3.14095400	9.96449400	-1.04110700	1.67059300	9.64275800	-3.75508100	-2.64247900	9.87170900	-0.75456900	0.34181400	9.32500300	2.07678200	-1.89687100	12.85769900	2.15893000	2.89976500	6.05675500	-0.11395200	7.75111800
1396	13.95000000	8.96085400	0.72109700	4.34116100	9.12572400	-0.54386000	3.10386000	9.52597500	-0.95165600	1.87983400	9.57948100	-3.50617000	-2.35005800	9.90530300	-1.06204600	0.35232400	9.31332600	1.89471200	-1.88050500	12.38252900	1.55104900	1.69050700	5.69669200	-0.11870900	7.99337600
1397	13.96000000	8.96630700	0.76634500	4.38637700	9.16509000	-0.49717600	3.03251600	8.62559300	-1.14965900	2.78623200	9.73456400	-3.03907700	-2.18997400	9.90949100	-0.90081100	0.44684200	9.35793700	1.80410700	-1.88095200	11.63286000	0.25290100	0.04885700	5.66811100	0.07328100	8.04364700
1398	13.97000000	8.96050000	0.77155300	4.39731600	9.14786800	-0.49217000	3.07161700	7.79957500	-0.92219400	2.95502100	9.72263600	-2.58439600	-1.81128000	9.85869000	-0.51251600	0.55055300	9.52687700	1.30441300	-1.90135100	9.96689600	1.73524700	-0.70774300	5.93613300	-0.08538700	7.79503900
1399	13.98000000	8.92022600	0.83488400	4.43688800	9.08491900	-0.55088700	2.97529800	6.71826300	-0.50966600	3.12905800	9.84449500	-2.00298100	-1.38610100	9.84163100	-0.27141700	0.57019900	9.67619200	1.16942400	-1.81173700	9.33856700	1.73149700	-1.08894000	5.97401600	-0.27860500	7.76285800
1400	13.99000000	8.90144300	0.85912900	4.41397100	9.01829000	-0.61560800	2.83001700	5.74067200	0.69338000	3.56088800	9.87658200	-1.46286700	-1.01818700	9.77314100	-0.33403500	0.72742900	9.66373200	1.05771000	-1.72730500	9.97262400	2.64111100	0.06187500	5.88451500	-0.03189900	7.88755600
1401	14	8.79342000	0.91069200	4.35331400	8.92364100	-0.79530500	2.70562400	5.63308400	1.98781000	3.15508500	9.61239600	-1.02285400	-0.69415700	9.72678700	-0.49167700	0.79669500	9.68990600	1.01968800	-1.77489700	10.05661600	3.37638600	1.37649900	5.46635800	-0.15371500	8.11374700
1402	14.01000000	8.78381500	0.93482000	4.27891500	8.85965800	-1.05533300	2.59102200	6.41360800	3.07410800	2.42988200	9.31495100	-0.73358100	-0.44163200	9.73828000	-0.54836100	0.70194200	9.72777900	1.04936200	-1.84716900	6.95570000	0.65865200	4.22381800	5.87939200	-0.08760800	7.90435000
1403	14.02000000	8.79554300	0.95836400	4.23349700	8.78946300	-1.24934700	2.53947700	7.86106900	4.09458300	1.78623500	9.11577300	-0.60578700	-0.26558700	9.78705500	-0.49165700	0.60388100	9.46962700	1.55708600	-1.87253400	-0.00242500	-3.60184500	9.37391500	5.70964100	-0.11358100	8.00072600
1404	14.03000000	8.87453500	0.96183300	4.35885300	8.78945900	-1.39813400	2.67195000	9.89863700	4.61555000	1.28251900	9.20839300	-0.40733600	-0.18153100	9.88586500	-0.59174000	0.44927300	9.45898400	1.77641800	-2.05093600	-6.94169900	0.04274800	17.78512600	5.98241900	-0.10335300	7.89988700
1405	14.04000000	8.99784200	0.88693600	4.35987600	8.97526300	-1.28321800	2.66784300	11.83340700	3.98163900	2.30563600	9.80154500	-0.08455500	-0.27312200	10.02412100	-0.61299400	0.30641400	9.30570700	2.08037600	-2.03747600	-0.10283600	6.31566300	20.84894900	6.01987500	-0.05640800	7.80799600
1406	14.05000000	9.06619200	0.82941100	4.40673500	9.05301500	-0.99194700	2.64181100	12.64978000	1.57901300	5.56127100	10.11046000	0.18829400	-0.53762500	9.98434500	-0.45018300	0.43272700	9.11497800	2.16430900	-1.99695100	3.83983600	0.54576900	7.07053300	6.23761800	0.01652400	7.70003600
1407	14.06000000	8.97107300	0.75622200	4.43196600	9.05167000	-0.75006900	2.77868900	12.25305400	-2.77980300	6.75143400	9.86509900	1.01540300	-0.68342300	9.85866800	-0.51007300	0.62034200	8.88735700	2.49893700	-1.89035700	2.46936800	1.90933700	6.23308600	5.91534800	0.00815200	7.86948400
1408	14.07000000	8.92732500	0.76320100	4.50307300	9.05998700	-0.63300800	3.18337200	9.78799300	-6.09059500	3.51222600	9.60666600	2.62231400	-0.57519400	9.82679500	-0.49975900	0.79328600	8.93054800	2.62131900	-1.66389300	2.00477600	2.56705800	8.90308200	5.77511700	-0.11447200	8.03143900
1409	14.08000000	9.01230400	0.79292200	4.51488700	9.23338400	-0.44585800	3.48341600	7.45839400	-5.26130400	2.01339400	9.68878800	3.66757100	-0.26882400	9.84136700	-0.39274800	0.93133300	9.31642600	2.55026100	-1.53930900	3.96187200	0.30122400	8.88313500	5.92053300	-0.05484500	7.96872800
1410	14.09000000	9.08658200	0.77061700	4.60502000	9.38943900	-0.11562800	3.70821500	7.57477800	-3.88523900	2.37818600	10.13510000	3.88573600	-0.03239600	9.84315300	-0.22257400	0.96085600	9.64235200	2.27597200	-1.52686800	4.62021300	0.40742600	9.24435700	6.30272600	-0.14649700	7.70799400
1411	14.10000000	9.12989500	0.66860100	4.67768000	9.53335800	0.17770900	3.86495100	9.19915600	-4.01424800	2.47693900	11.08919000	2.49242300	-0.09023200	9.79429000	-0.26675000	1.11067400	9.81377100	1.98059500	-1.49189600	5.00177700	-0.57161700	9.79084400	6.02227900	-0.17451900	7.83336500
1412	14.11000000	9.16261300	0.54738000	4.75873100	9.74386500	0.50564000	4.13199500	11.05803900	-3.54857200	2.91623700	11.69395600	0.63807600	-0.88981600	9.79066900	-0.25776900	1.26119400	9.96661900	1.71183300	-1.47209200	5.48261800	-1.53903800	9.56858200	5.59715000	0.06895500	8.27108600
1413	14.12000000	9.16112300	0.47628100	4.84302600	9.83669000	0.67714400	4.36832100	11.98469000	-2.45894600	2.82564300	11.58174600	-1.16438500	-1.92169500	9.85466200	-0.02209400	1.37764100	10.13755200	1.64654300	-1.60115000	5.73456100	-1.57148200	9.84018800	5.62496800	0.39221500	8.38404000
1414	14.13000000	9.17258700	0.36728000	4.91623100	9.96960400	0.75251900	4.44638900	11.99866800	-1.17520400	2.38982700	11.28057800	-2.33832100	-2.56610900	10.02640600	0.24736200	1.28257700	10.36693600	1.71845000	-1.86622800	6.34625400	-2.09767800	9.21891900	5.83383500	0.20090100	8.31283000
1415	14.14000000	9.21380200	0.39009300	4.98394000	10.01273100	0.69989500	4.43688800	11.42214900	-0.41236300	1.98583700	11.03014100	-2.12163800	-2.74459800	10.23825400	0.31115600	1.16543100	10.49986000	1.80015200	-2.14863400	6.97700300	-1.43710800	9.55620000	6.01314900	-0.00178500	8.25035100
1416	14.15000000	9.36121600	0.27782000	4.92594900	9.97448900	0.54671000	4.35818900	10.79387400	-0.08746500	1.81700100	10.72235700	-1.26548900	-2.73617000	10.33243000	0.12981400	1.22967500	10.51673900	1.81289000	-2.36653700	7.50404700	-1.92472600	10.42906200	5.82385400	-0.19077900	8.32662500
1417	14.16000000	9.39096400	0.14076300	4.87164200	9.86657100	0.31187300	4.30442600	10.82762400	0.55501700	1.90068200	10.46682800	-0.64086200	-2.60558000	10.41166200	-0.16445800	1.22446300	10.45725900	1.82225600	-2.45322200	7.22006800	-2.29827700	9.89305200	6.03907900	-0.17947700	8.52007700
1418	14.17000000	9.54904000	0.16549100	4.80023100	9.81259000	0.00260800	4.20938100	10.95711000	1.39961500	1.85060100	10.30062700	-0.10707200	-2.48085200	10.71565800	-0.45000800	1.49683100	10.45670100	1.88786500	-2.32014300	5.22054400	-1.08188600	8.87173500	5.69705100	-2.02603900	8.56637700
